<svg xmlns="http://www.w3.org/2000/svg" viewBox="0 0 620 380" width="620" height="380" font-family="Helvetica, Arial, sans-serif">
  <defs>
    <marker id="ar" markerWidth="10" markerHeight="10" refX="9" refY="3.5" orient="auto">
      <polygon points="0 0, 10 3.5, 0 7" fill="#2c5f8a"/>
    </marker>
    <marker id="arRed" markerWidth="10" markerHeight="10" refX="9" refY="3.5" orient="auto">
      <polygon points="0 0, 10 3.5, 0 7" fill="#c0392b"/>
    </marker>
    <marker id="arGrey" markerWidth="10" markerHeight="10" refX="9" refY="3.5" orient="auto">
      <polygon points="0 0, 10 3.5, 0 7" fill="#888"/>
    </marker>
  </defs>
  <rect width="620" height="380" fill="#ffffff"/>
  <text x="310" y="28" text-anchor="middle" font-size="16" font-weight="bold" fill="#333">Why the loss is -log(p) of the correct character</text>

  <line x1="90" y1="300" x2="540" y2="300" stroke="#999" stroke-width="1.5"/>
  <line x1="90" y1="300" x2="90" y2="70" stroke="#999" stroke-width="1.5"/>
  <text x="315.0" y="340" text-anchor="middle" font-size="13" fill="#666">probability the model gave the correct character</text>
  <text x="32" y="185.0" text-anchor="middle" font-size="13" fill="#666" transform="rotate(-90 32 185.0)">loss</text>
  <text x="90" y="320" text-anchor="middle" font-size="12" fill="#666">0</text>
  <text x="540" y="320" text-anchor="middle" font-size="12" fill="#666">1</text>
  <polyline points="99.6,78.6 101.0,86.8 102.5,94.0 104.0,100.4 105.5,106.2 106.9,111.4 108.4,116.2 109.9,120.6 111.4,124.7 112.8,128.6 114.3,132.2 115.8,135.6 117.2,138.8 118.7,141.8 120.2,144.7 121.7,147.4 123.1,150.0 124.6,152.5 126.1,154.9 127.6,157.2 129.0,159.4 130.5,161.6 132.0,163.6 133.5,165.6 134.9,167.5 136.4,169.4 137.9,171.2 139.3,172.9 140.8,174.6 142.3,176.2 143.8,177.8 145.2,179.4 146.7,180.9 148.2,182.4 149.7,183.8 151.1,185.2 152.6,186.6 154.1,187.9 155.5,189.2 157.0,190.5 158.5,191.8 160.0,193.0 161.4,194.2 162.9,195.4 164.4,196.5 165.9,197.6 167.3,198.7 168.8,199.8 170.3,200.9 171.8,201.9 173.2,203.0 174.7,204.0 176.2,205.0 177.6,205.9 179.1,206.9 180.6,207.8 182.1,208.8 183.5,209.7 185.0,210.6 186.5,211.5 188.0,212.3 189.4,213.2 190.9,214.0 192.4,214.9 193.8,215.7 195.3,216.5 196.8,217.3 198.3,218.1 199.7,218.9 201.2,219.6 202.7,220.4 204.2,221.1 205.6,221.9 207.1,222.6 208.6,223.3 210.0,224.0 211.5,224.7 213.0,225.4 214.5,226.1 215.9,226.8 217.4,227.4 218.9,228.1 220.4,228.8 221.8,229.4 223.3,230.0 224.8,230.7 226.3,231.3 227.7,231.9 229.2,232.5 230.7,233.1 232.1,233.7 233.6,234.3 235.1,234.9 236.6,235.5 238.0,236.1 239.5,236.6 241.0,237.2 242.5,237.8 243.9,238.3 245.4,238.9 246.9,239.4 248.3,239.9 249.8,240.5 251.3,241.0 252.8,241.5 254.2,242.0 255.7,242.6 257.2,243.1 258.7,243.6 260.1,244.1 261.6,244.6 263.1,245.1 264.5,245.5 266.0,246.0 267.5,246.5 269.0,247.0 270.4,247.5 271.9,247.9 273.4,248.4 274.9,248.8 276.3,249.3 277.8,249.8 279.3,250.2 280.8,250.6 282.2,251.1 283.7,251.5 285.2,252.0 286.6,252.4 288.1,252.8 289.6,253.3 291.1,253.7 292.5,254.1 294.0,254.5 295.5,254.9 297.0,255.3 298.4,255.7 299.9,256.1 301.4,256.6 302.8,257.0 304.3,257.3 305.8,257.7 307.3,258.1 308.7,258.5 310.2,258.9 311.7,259.3 313.2,259.7 314.6,260.0 316.1,260.4 317.6,260.8 319.1,261.2 320.5,261.5 322.0,261.9 323.5,262.3 324.9,262.6 326.4,263.0 327.9,263.3 329.4,263.7 330.8,264.1 332.3,264.4 333.8,264.8 335.3,265.1 336.7,265.4 338.2,265.8 339.7,266.1 341.1,266.5 342.6,266.8 344.1,267.1 345.6,267.5 347.0,267.8 348.5,268.1 350.0,268.5 351.5,268.8 352.9,269.1 354.4,269.4 355.9,269.7 357.3,270.1 358.8,270.4 360.3,270.7 361.8,271.0 363.2,271.3 364.7,271.6 366.2,271.9 367.7,272.2 369.1,272.5 370.6,272.8 372.1,273.1 373.6,273.4 375.0,273.7 376.5,274.0 378.0,274.3 379.4,274.6 380.9,274.9 382.4,275.2 383.9,275.5 385.3,275.8 386.8,276.1 388.3,276.4 389.8,276.6 391.2,276.9 392.7,277.2 394.2,277.5 395.6,277.8 397.1,278.0 398.6,278.3 400.1,278.6 401.5,278.9 403.0,279.1 404.5,279.4 406.0,279.7 407.4,279.9 408.9,280.2 410.4,280.5 411.8,280.7 413.3,281.0 414.8,281.3 416.3,281.5 417.7,281.8 419.2,282.0 420.7,282.3 422.2,282.5 423.6,282.8 425.1,283.0 426.6,283.3 428.1,283.6 429.5,283.8 431.0,284.1 432.5,284.3 433.9,284.5 435.4,284.8 436.9,285.0 438.4,285.3 439.8,285.5 441.3,285.8 442.8,286.0 444.3,286.2 445.7,286.5 447.2,286.7 448.7,287.0 450.1,287.2 451.6,287.4 453.1,287.7 454.6,287.9 456.0,288.1 457.5,288.4 459.0,288.6 460.5,288.8 461.9,289.0 463.4,289.3 464.9,289.5 466.4,289.7 467.8,289.9 469.3,290.2 470.8,290.4 472.2,290.6 473.7,290.8 475.2,291.1 476.7,291.3 478.1,291.5 479.6,291.7 481.1,291.9 482.6,292.1 484.0,292.4 485.5,292.6 487.0,292.8 488.4,293.0 489.9,293.2 491.4,293.4 492.9,293.6 494.3,293.8 495.8,294.1 497.3,294.3 498.8,294.5 500.2,294.7 501.7,294.9 503.2,295.1 504.6,295.3 506.1,295.5 507.6,295.7 509.1,295.9 510.5,296.1 512.0,296.3 513.5,296.5 515.0,296.7 516.4,296.9 517.9,297.1 519.4,297.3 520.9,297.5 522.3,297.7 523.8,297.9 525.3,298.1 526.7,298.3 528.2,298.5 529.7,298.7 531.2,298.9 532.6,299.1 534.1,299.2 535.6,299.4 537.1,299.6 538.5,299.8 540.0,300.0" fill="none" stroke="#2c5f8a" stroke-width="2.5"/>

  <circle cx="112.5" cy="127.74539427064553" r="5" fill="#c0392b"/>
  <text x="126.5" y="121.74539427064553" font-size="12" fill="#c0392b">p = 0.05, loss = 3.0</text>
  <circle cx="517.5" cy="297.05063557271586" r="5" fill="#2c5f8a"/>
  <text x="501.5" y="267.05063557271586" text-anchor="end" font-size="12" fill="#2c5f8a">p = 0.95, loss = 0.05</text>
  <text x="345.0" y="78" font-size="13" fill="#666">confident and wrong is expensive</text>
  <text x="345.0" y="98" font-size="13" fill="#666">confident and right costs almost nothing</text>
</svg>
