<svg xmlns="http://www.w3.org/2000/svg" viewBox="0 0 780 440" width="780" height="440" font-family="Helvetica, Arial, sans-serif">
  <defs>
    <marker id="ar" markerWidth="10" markerHeight="10" refX="9" refY="3.5" orient="auto">
      <polygon points="0 0, 10 3.5, 0 7" fill="#2c5f8a"/>
    </marker>
    <marker id="arRed" markerWidth="10" markerHeight="10" refX="9" refY="3.5" orient="auto">
      <polygon points="0 0, 10 3.5, 0 7" fill="#c0392b"/>
    </marker>
    <marker id="arGrey" markerWidth="10" markerHeight="10" refX="9" refY="3.5" orient="auto">
      <polygon points="0 0, 10 3.5, 0 7" fill="#888"/>
    </marker>
  </defs>
  <rect width="780" height="440" fill="#ffffff"/>
  <text x="390" y="28" text-anchor="middle" font-size="16" font-weight="bold" fill="#333">Why one gradient carries a −1 and the other does not</text>

  <line x1="88" y1="272" x2="388" y2="272" stroke="#999" stroke-width="1.5"/>
  <line x1="88" y1="272" x2="88" y2="72" stroke="#999" stroke-width="1.5"/>
  <text x="238.0" y="310" text-anchor="middle" font-size="13" fill="#666">the correct character's logit</text>
  <text x="58" y="172.0" text-anchor="middle" font-size="13" fill="#666" transform="rotate(-90 58 172.0)">loss</text>
  <polyline points="88.0,72.0 89.4,72.0 90.7,72.0 92.1,72.0 93.5,72.0 94.8,72.0 96.2,72.0 97.5,72.0 98.9,72.0 100.3,72.0 101.6,72.0 103.0,73.0 104.4,74.4 105.7,75.7 107.1,77.1 108.5,78.4 109.8,79.8 111.2,81.1 112.5,82.5 113.9,83.8 115.3,85.2 116.6,86.5 118.0,87.9 119.4,89.2 120.7,90.6 122.1,91.9 123.5,93.3 124.8,94.6 126.2,95.9 127.5,97.3 128.9,98.6 130.3,99.9 131.6,101.3 133.0,102.6 134.4,103.9 135.7,105.2 137.1,106.6 138.5,107.9 139.8,109.2 141.2,110.5 142.5,111.8 143.9,113.1 145.3,114.4 146.6,115.7 148.0,117.0 149.4,118.3 150.7,119.6 152.1,120.9 153.5,122.2 154.8,123.5 156.2,124.8 157.5,126.1 158.9,127.4 160.3,128.7 161.6,129.9 163.0,131.2 164.4,132.5 165.7,133.7 167.1,135.0 168.5,136.3 169.8,137.5 171.2,138.8 172.5,140.0 173.9,141.3 175.3,142.5 176.6,143.7 178.0,145.0 179.4,146.2 180.7,147.4 182.1,148.7 183.5,149.9 184.8,151.1 186.2,152.3 187.5,153.5 188.9,154.7 190.3,155.9 191.6,157.1 193.0,158.3 194.4,159.5 195.7,160.7 197.1,161.9 198.5,163.1 199.8,164.2 201.2,165.4 202.5,166.5 203.9,167.7 205.3,168.9 206.6,170.0 208.0,171.1 209.4,172.3 210.7,173.4 212.1,174.5 213.5,175.6 214.8,176.8 216.2,177.9 217.5,179.0 218.9,180.1 220.3,181.2 221.6,182.2 223.0,183.3 224.4,184.4 225.7,185.5 227.1,186.5 228.5,187.6 229.8,188.6 231.2,189.7 232.5,190.7 233.9,191.7 235.3,192.8 236.6,193.8 238.0,194.8 239.4,195.8 240.7,196.8 242.1,197.8 243.5,198.8 244.8,199.7 246.2,200.7 247.5,201.7 248.9,202.6 250.3,203.6 251.6,204.5 253.0,205.5 254.4,206.4 255.7,207.3 257.1,208.2 258.5,209.1 259.8,210.0 261.2,210.9 262.5,211.8 263.9,212.7 265.3,213.5 266.6,214.4 268.0,215.2 269.4,216.1 270.7,216.9 272.1,217.8 273.5,218.6 274.8,219.4 276.2,220.2 277.5,221.0 278.9,221.8 280.3,222.6 281.6,223.3 283.0,224.1 284.4,224.8 285.7,225.6 287.1,226.3 288.5,227.1 289.8,227.8 291.2,228.5 292.5,229.2 293.9,229.9 295.3,230.6 296.6,231.3 298.0,232.0 299.4,232.6 300.7,233.3 302.1,233.9 303.5,234.6 304.8,235.2 306.2,235.9 307.5,236.5 308.9,237.1 310.3,237.7 311.6,238.3 313.0,238.9 314.4,239.5 315.7,240.0 317.1,240.6 318.5,241.2 319.8,241.7 321.2,242.2 322.5,242.8 323.9,243.3 325.3,243.8 326.6,244.3 328.0,244.8 329.4,245.3 330.7,245.8 332.1,246.3 333.5,246.8 334.8,247.3 336.2,247.7 337.5,248.2 338.9,248.6 340.3,249.1 341.6,249.5 343.0,249.9 344.4,250.3 345.7,250.7 347.1,251.2 348.5,251.6 349.8,251.9 351.2,252.3 352.5,252.7 353.9,253.1 355.3,253.5 356.6,253.8 358.0,254.2 359.4,254.5 360.7,254.9 362.1,255.2 363.5,255.5 364.8,255.9 366.2,256.2 367.5,256.5 368.9,256.8 370.3,257.1 371.6,257.4 373.0,257.7 374.4,258.0 375.7,258.3 377.1,258.5 378.5,258.8 379.8,259.1 381.2,259.4 382.5,259.6 383.9,259.9 385.3,260.1 386.6,260.4 388.0,260.6" fill="none" stroke="#2c5f8a" stroke-width="2.5"/>

  <line x1="131.0" y1="104.22086620434678" x2="255.0" y2="212.4333678811191" stroke="#c0392b" stroke-width="2.2"/>
  <circle cx="193.0" cy="158.3" r="5" fill="#c0392b"/>
  <text x="384" y="88" text-anchor="end" font-size="13" fill="#c0392b">slope = p − 1</text>
  <text x="384" y="105" text-anchor="end" font-size="13" fill="#c0392b">which is negative</text>
  <line x1="193.0" y1="286" x2="275.0" y2="286" stroke="#2c5f8a" stroke-width="2.5" marker-end="url(#ar)"/>
  <text x="283.0" y="291" font-size="12" fill="#2c5f8a">push it up</text>
  <text x="238.0" y="334" text-anchor="middle" font-size="12.5" fill="#1a1a1a">raise this logit and the loss falls,</text>
  <text x="238.0" y="351" text-anchor="middle" font-size="12.5" fill="#1a1a1a">so descent raises it</text>

  <line x1="438" y1="272" x2="738" y2="272" stroke="#999" stroke-width="1.5"/>
  <line x1="438" y1="272" x2="438" y2="72" stroke="#999" stroke-width="1.5"/>
  <text x="588.0" y="310" text-anchor="middle" font-size="13" fill="#666">a wrong character's logit</text>
  <text x="408" y="172.0" text-anchor="middle" font-size="13" fill="#666" transform="rotate(-90 408 172.0)">loss</text>
  <polyline points="438.0,259.5 439.4,259.5 440.7,259.5 442.1,259.4 443.5,259.4 444.8,259.4 446.2,259.3 447.5,259.3 448.9,259.3 450.3,259.2 451.6,259.2 453.0,259.2 454.4,259.1 455.7,259.1 457.1,259.1 458.5,259.0 459.8,259.0 461.2,259.0 462.5,258.9 463.9,258.9 465.3,258.8 466.6,258.8 468.0,258.7 469.4,258.7 470.7,258.6 472.1,258.6 473.5,258.5 474.8,258.5 476.2,258.4 477.5,258.4 478.9,258.3 480.3,258.3 481.6,258.2 483.0,258.2 484.4,258.1 485.7,258.0 487.1,258.0 488.5,257.9 489.8,257.8 491.2,257.8 492.5,257.7 493.9,257.6 495.3,257.5 496.6,257.5 498.0,257.4 499.4,257.3 500.7,257.2 502.1,257.1 503.5,257.0 504.8,257.0 506.2,256.9 507.5,256.8 508.9,256.7 510.3,256.6 511.6,256.5 513.0,256.4 514.4,256.3 515.7,256.2 517.1,256.0 518.5,255.9 519.8,255.8 521.2,255.7 522.5,255.6 523.9,255.4 525.3,255.3 526.6,255.2 528.0,255.1 529.4,254.9 530.7,254.8 532.1,254.6 533.5,254.5 534.8,254.3 536.2,254.2 537.5,254.0 538.9,253.8 540.3,253.7 541.6,253.5 543.0,253.3 544.4,253.1 545.7,253.0 547.1,252.8 548.5,252.6 549.8,252.4 551.2,252.2 552.5,252.0 553.9,251.7 555.3,251.5 556.6,251.3 558.0,251.1 559.4,250.8 560.7,250.6 562.1,250.3 563.5,250.1 564.8,249.8 566.2,249.5 567.5,249.3 568.9,249.0 570.3,248.7 571.6,248.4 573.0,248.1 574.4,247.8 575.7,247.5 577.1,247.2 578.5,246.8 579.8,246.5 581.2,246.2 582.5,245.8 583.9,245.4 585.3,245.1 586.6,244.7 588.0,244.3 589.4,243.9 590.7,243.5 592.1,243.1 593.5,242.6 594.8,242.2 596.2,241.8 597.5,241.3 598.9,240.8 600.3,240.4 601.6,239.9 603.0,239.4 604.4,238.9 605.7,238.3 607.1,237.8 608.5,237.3 609.8,236.7 611.2,236.1 612.5,235.5 613.9,234.9 615.3,234.3 616.6,233.7 618.0,233.1 619.4,232.4 620.7,231.7 622.1,231.1 623.5,230.4 624.8,229.6 626.2,228.9 627.5,228.2 628.9,227.4 630.3,226.6 631.6,225.8 633.0,225.0 634.4,224.2 635.7,223.4 637.1,222.5 638.5,221.6 639.8,220.7 641.2,219.8 642.5,218.9 643.9,217.9 645.3,216.9 646.6,216.0 648.0,214.9 649.4,213.9 650.7,212.9 652.1,211.8 653.5,210.7 654.8,209.6 656.2,208.4 657.5,207.3 658.9,206.1 660.3,204.9 661.6,203.6 663.0,202.4 664.4,201.1 665.7,199.8 667.1,198.5 668.5,197.1 669.8,195.8 671.2,194.4 672.5,192.9 673.9,191.5 675.3,190.0 676.6,188.5 678.0,187.0 679.4,185.4 680.7,183.9 682.1,182.3 683.5,180.6 684.8,179.0 686.2,177.3 687.5,175.6 688.9,173.8 690.3,172.0 691.6,170.2 693.0,168.4 694.4,166.5 695.7,164.7 697.1,162.7 698.5,160.8 699.8,158.8 701.2,156.8 702.5,154.8 703.9,152.7 705.3,150.6 706.6,148.5 708.0,146.4 709.4,144.2 710.7,142.0 712.1,139.7 713.5,137.5 714.8,135.2 716.2,132.8 717.5,130.5 718.9,128.1 720.3,125.6 721.6,123.2 723.0,120.7 724.4,118.2 725.7,115.6 727.1,113.1 728.5,110.5 729.8,107.8 731.2,105.2 732.5,102.5 733.9,99.7 735.3,97.0 736.6,94.2 738.0,91.4" fill="none" stroke="#2c5f8a" stroke-width="2.5"/>

  <line x1="666.0540540540541" y1="204.4444526298433" x2="718.0540540540541" y2="134.90941245575934" stroke="#c0392b" stroke-width="2.2"/>
  <circle cx="692.1" cy="169.7" r="5" fill="#c0392b"/>
  <text x="646.0540540540541" y="139.67693254280132" text-anchor="end" font-size="13" fill="#c0392b">slope = p</text>
  <text x="646.0540540540541" y="155.67693254280132" text-anchor="end" font-size="13" fill="#c0392b">which is positive</text>
  <line x1="692.0540540540541" y1="286" x2="610.0540540540541" y2="286" stroke="#2c5f8a" stroke-width="2.5" marker-end="url(#ar)"/>
  <text x="602.0540540540541" y="291" text-anchor="end" font-size="12" fill="#2c5f8a">push it down</text>
  <text x="588.0" y="334" text-anchor="middle" font-size="12.5" fill="#1a1a1a">raise this logit and the loss climbs,</text>
  <text x="588.0" y="351" text-anchor="middle" font-size="12.5" fill="#1a1a1a">so descent lowers it</text>

  <rect x="90" y="370" width="600" height="42" rx="8" fill="#f2f2f2" stroke="#ccc"/>
  <text x="390" y="396" text-anchor="middle" font-size="14" fill="#1a1a1a">descent moves against the slope, so the sign of the gradient already encodes the direction</text>
</svg>
